# xmcd
#
# Track frame offsets:
#	150
#	11408
#	19622
#	36710
#	47651
#	57022
#	69443
#	82526
#	94888
#	106648
#	121500
#	134797
#	146018
#	156016
#	171968
#	184374
#
# Disc length: 2635
#
# Revision: 1
# Processed by: cddbd v1.5.1PL0 Copyright (c) Steve Scherf et al.
# Submitted via: CDex 1.40PlusFr
# Normalized: r0:TDELIM( - )
#
DISCID=cc0a4910
DTITLE=Artistes variés - Total Country CD 1
DYEAR=1900
DGENRE=Country
TTITLE0=Razzy Bailey - 9,999,999 tears
TTITLE1=Jim Reeves - Sweet evening blues
TTITLE2=Lynn Anderson - Blue Bayou
TTITLE3=Dolly Parton - It wasn't god who made Honky Tonk Angels
TTITLE4=Willie Nelson - One step beyond
TTITLE5=Tina Tttturner - If it's all right with you
TTITLE6=Dolly Parton - Little Blossom
TTITLE7=Federation - Talk dirty to me
TTITLE8=Waylon Jennings - Crying
TTITLE9=Ricky Nelson - Milk cow blues boogie
TTITLE10=Don Williams - Ruby tuesday
TTITLE11=Jim Reeves - Just call me lonesome
TTITLE12=Willie Nelson - I didn't sleep a wink
TTITLE13=Tina Turner - Lay it down
TTITLE14=Kenny Rogers - Reuben James
TTITLE15=Lynn Anderson - Rose garden
EXTD=ID3G: 2
EXTT0=
EXTT1=
EXTT2=
EXTT3=
EXTT4=
EXTT5=
EXTT6=
EXTT7=
EXTT8=
EXTT9=
EXTT10=
EXTT11=
EXTT12=
EXTT13=
EXTT14=
EXTT15=
PLAYORDER=
